<svg width="33" height="54" viewBox="0 0 33 54" fill="none" xmlns="http://www.w3.org/2000/svg">
<path d="M2.51818 21.4912C2.05862 21.7995 1.66376 22.0892 1.2972 22.3877C0.894923 22.7256 0.438742 23.1087 0.156408 23.6528C-0.00800654 23.9449 -0.0450671 24.2936 0.0560072 24.6097C0.145626 24.8907 0.335646 25.1161 0.592374 25.2481C0.919855 25.4378 1.26553 25.5008 1.56336 25.5375C2.12735 25.6059 2.69809 25.5898 3.25063 25.5604L7.97281 25.176C9.95926 25.0119 11.9787 24.8455 14.0507 24.6919L17.3384 32.4608C15.1646 33.9422 12.9773 35.4644 10.8117 37.0458C9.44782 38.0461 8.34948 38.8861 7.35222 39.6923C6.2869 40.5669 5.07872 41.5585 4.07472 42.7306C3.81799 43.0402 3.55452 43.3825 3.35372 43.8323C3.27286 44.0452 3.1509 44.367 3.22772 44.7224C3.30318 45.1412 3.61449 45.5031 4.01609 45.6415C4.79437 45.9188 5.58072 45.813 6.27409 45.7207L6.52071 45.6877C8.04357 45.4283 9.54822 45.0506 10.8406 44.717C13.6929 43.9748 16.4395 43.0881 19.2305 42.1703C19.7392 42.0076 20.2466 41.8415 20.754 41.675C20.8861 41.6319 21.0188 41.5885 21.1515 41.5453C21.9952 43.583 22.9594 45.9282 23.9041 48.353C24.0133 48.6273 24.1157 48.9069 24.2181 49.1879C24.582 50.1845 24.9587 51.2148 25.6709 52.1359C25.9593 52.493 26.2504 52.7656 26.5759 52.9782C26.9572 53.214 27.369 53.3363 27.7786 53.3363C27.8413 53.3363 27.904 53.3333 27.9666 53.3276C28.7274 53.2548 29.4221 52.8114 30.104 51.957C31.0514 50.6963 31.5804 49.1862 31.9368 48.006C32.3128 46.721 32.608 45.3083 32.8121 43.8182C32.9408 42.9802 32.9806 42.2414 32.9348 41.5598C32.8647 40.5474 32.5096 39.7246 31.9139 39.1859C31.3385 38.6522 30.5326 38.3517 29.5178 38.2918C28.8285 38.2533 28.0758 38.3049 27.22 38.4541C25.4263 38.7762 23.6602 39.2914 21.9345 39.8412L19.0479 32.9675C20.3901 32.0578 21.725 31.1627 23.045 30.2779L25.7511 28.4599C26.778 27.7662 27.84 27.0486 28.8561 26.3178C29.1364 26.1153 29.414 25.9095 29.7065 25.676L29.8123 25.5874C30.0737 25.3714 30.4686 25.045 30.5488 24.4574C30.5845 24.0507 30.3695 23.6724 29.9531 23.4167C29.7759 23.3092 29.5717 23.2233 29.3345 23.1549C28.9511 23.0413 28.5765 22.9837 28.253 22.9413C26.9411 22.7819 25.6696 22.7769 24.268 22.7846C23.1414 22.7971 21.9244 22.8358 20.4373 22.9069C18.5526 23.0009 16.7225 23.1168 14.9335 23.2442L12.5205 17.5934C12.9295 17.3936 13.3244 17.2019 13.703 17.018L16.0667 15.8998L16.705 17.2707C16.806 17.4883 17.0136 17.6379 17.2514 17.6652C17.2777 17.6682 17.304 17.6696 17.3303 17.6696C17.5412 17.6696 17.742 17.5729 17.874 17.4048C18.8888 16.1073 19.9083 14.8287 20.9049 13.6047C21.0693 13.4029 21.1064 13.1256 20.9999 12.8881C20.8941 12.6502 20.6637 12.4926 20.4036 12.4798C18.812 12.4026 17.1578 12.3383 15.488 12.2894C15.2434 12.2773 15.0231 12.3996 14.8917 12.5997C14.7596 12.7995 14.7414 13.0532 14.8425 13.2702L15.4844 14.6488L13.1067 15.7738C12.7442 15.9496 12.3675 16.1322 11.978 16.3226L7.16906 5.06087L8.56309 4.46187C8.78343 4.3672 8.93908 4.16505 8.97345 3.92787C9.00849 3.69068 8.91752 3.45248 8.73357 3.29851L4.98236 0.160493C4.78224 -0.00661607 4.50664 -0.0463719 4.26676 0.0560499C4.02822 0.158809 3.86718 0.387237 3.85101 0.646997L3.54846 5.52686C3.53363 5.76607 3.64414 5.99585 3.84023 6.13398C3.95815 6.21686 4.09695 6.25965 4.23711 6.25965C4.32943 6.25965 4.42241 6.24112 4.50934 6.20372L5.90088 5.60578L10.7375 16.9327C8.98288 17.8033 7.01126 18.8185 4.89679 20.0243C3.98106 20.5512 3.22569 21.0172 2.51818 21.4912ZM27.4606 39.8129C28.2079 39.6825 28.8547 39.6354 29.4376 39.6694C30.1236 39.7098 30.6411 39.8877 30.982 40.2037C31.4018 40.5831 31.5265 41.202 31.5575 41.6538C31.5972 42.2326 31.5608 42.8724 31.4463 43.62C31.2502 45.0533 30.9699 46.3986 30.6141 47.6125C30.292 48.6781 29.8176 50.0406 29.0124 51.112C28.5893 51.6433 28.2038 51.9186 27.8379 51.9536C27.6735 51.9681 27.4815 51.9155 27.3164 51.8141C27.1284 51.6908 26.9411 51.5126 26.7538 51.2805C26.181 50.5403 25.8576 49.6532 25.5146 48.7145C25.4074 48.4214 25.301 48.1293 25.1884 47.8473C24.2565 45.4562 23.3058 43.1416 22.4689 41.1195C24.113 40.5976 25.7882 40.1134 27.4606 39.8129ZM20.6165 40.2681C20.5195 40.3001 20.4218 40.3318 20.3248 40.3638C19.8201 40.5289 19.3154 40.6939 18.8046 40.8574C16.0298 41.7697 13.3062 42.6494 10.4943 43.3812C9.23018 43.7076 7.75921 44.0766 6.31722 44.3229L6.09081 44.3528C5.56118 44.4236 5.05783 44.4916 4.61984 44.3835C4.62456 44.3717 4.62793 44.3619 4.62995 44.3559C4.73844 44.1136 4.91094 43.8835 5.12993 43.62C6.04769 42.5483 7.15613 41.6387 8.22415 40.7623C9.19985 39.9733 10.282 39.1458 11.627 38.1593C13.6997 36.6456 15.7966 35.1837 17.8835 33.7592L20.6165 40.2681ZM20.5047 24.2852C21.9729 24.2151 23.1737 24.1767 24.2795 24.1646C25.6338 24.1575 26.8548 24.1619 28.0805 24.3105C28.3433 24.3449 28.6513 24.392 28.9477 24.4796C28.9578 24.4823 28.9673 24.485 28.976 24.488C28.9605 24.5008 28.9464 24.5126 28.9329 24.5238L28.8238 24.6157C28.5717 24.8165 28.3103 25.0096 28.0488 25.1986C27.0509 25.9162 25.997 26.6281 24.9789 27.3164L22.2762 29.1317C21.0303 29.9673 19.7702 30.8119 18.5027 31.6697L15.5069 24.5874C17.1355 24.4736 18.7985 24.3705 20.5047 24.2852ZM18.9751 13.7961C18.4798 14.4113 17.9805 15.0376 17.4819 15.67L17.0234 14.6857C17.0232 14.6852 17.0232 14.6846 17.023 14.6842C17.0228 14.6837 17.0223 14.6835 17.0221 14.683L16.5661 13.7041C17.3774 13.7311 18.182 13.7621 18.9751 13.7961ZM4.99517 4.49287L5.14408 2.09472L6.987 3.63677L4.99517 4.49287ZM11.2806 18.2039L13.478 23.351C11.5663 23.4948 9.69849 23.6488 7.85894 23.8007L3.15831 24.1838C2.61521 24.2125 2.16374 24.2202 1.73114 24.1676C1.65365 24.1582 1.56673 24.1457 1.48452 24.1262C1.66107 23.8843 1.91645 23.67 2.18193 23.4473C2.502 23.1865 2.86385 22.9214 3.28701 22.637C3.96691 22.1815 4.69734 21.7311 5.58275 21.2217C7.63792 20.0499 9.56305 19.0573 11.2806 18.2039Z" fill="white"/>
</svg>
